<svg xmlns = "http://www.w3.org/2000/svg" width = "1000" height = "1000">
<g>
<polygon points = "621.454, 999.169 546.624, 940.018 494.050, 969.737 479.582, 1000.000 622.055, 1000.000 "
fill = "white" stroke = "black"/>
</g>
<g>
<polygon points = "816.146, 757.906 785.703, 793.432 782.797, 844.739 795.175, 857.876 825.039, 839.317 841.223, 796.991 "
fill = "white" stroke = "black"/>
</g>
<g>
<polygon points = "435.522, 412.343 500.134, 463.519 513.204, 367.059 496.245, 358.464 452.170, 348.887 448.022, 362.578 "
fill = "white" stroke = "black"/>
</g>
<g>
<polygon points = "859.515, 705.223 881.954, 711.188 889.423, 704.046 961.032, 614.881 893.597, 581.565 "
fill = "white" stroke = "black"/>
</g>
<g>
<polygon points = "786.137, 159.688 741.301, 163.304 721.510, 190.251 715.071, 211.353 745.835, 237.689 772.489, 199.920 "
fill = "white" stroke = "black"/>
</g>
<g>
<polygon points = "837.065, 842.677 858.429, 844.812 906.589, 802.566 841.223, 796.991 825.039, 839.317 "
fill = "white" stroke = "black"/>
</g>
<g>
<polygon points = "544.425, 282.683 531.820, 259.069 497.117, 274.739 494.634, 283.059 519.617, 303.357 "
fill = "white" stroke = "black"/>
</g>
<g>
<polygon points = "65.288, 724.583 60.917, 667.754 21.466, 625.137 0.000, 615.435 0.000, 763.083 "
fill = "white" stroke = "black"/>
</g>
<g>
<polygon points = "401.151, 908.613 400.655, 896.454 327.844, 888.723 294.130, 911.518 366.055, 950.675 385.667, 947.482 "
fill = "white" stroke = "black"/>
</g>
<g>
<polygon points = "120.392, 885.542 145.765, 918.880 201.585, 935.474 194.517, 836.829 139.691, 821.897 112.039, 843.880 "
fill = "white" stroke = "black"/>
</g>
<g>
<polygon points = "373.774, 68.240 375.528, 71.147 429.314, 88.478 483.545, 68.648 528.159, 0.000 371.211, 0.000 "
fill = "white" stroke = "black"/>
</g>
<g>
<polygon points = "14.239, 948.570 38.833, 904.047 28.621, 827.513 0.000, 809.704 0.000, 955.399 "
fill = "white" stroke = "black"/>
</g>
<g>
<polygon points = "385.667, 947.482 366.055, 950.675 346.625, 1000.000 445.889, 1000.000 "
fill = "white" stroke = "black"/>
</g>
<g>
<polygon points = "581.119, 548.947 595.554, 436.561 574.931, 425.976 513.469, 477.330 "
fill = "white" stroke = "black"/>
</g>
<g>
<polygon points = "615.903, 435.496 623.396, 383.045 563.386, 389.937 574.931, 425.976 595.554, 436.561 "
fill = "white" stroke = "black"/>
</g>
<g>
<polygon points = "672.072, 883.539 682.328, 889.191 702.740, 834.144 688.210, 773.834 651.096, 851.359 "
fill = "white" stroke = "black"/>
</g>
<g>
<polygon points = "311.614, 552.473 357.027, 610.449 409.796, 626.171 409.528, 588.941 337.143, 509.909 335.261, 508.692 313.464, 524.519 "
fill = "white" stroke = "black"/>
</g>
<g>
<polygon points = "624.074, 926.031 601.465, 916.261 563.856, 902.988 546.624, 940.018 621.454, 999.169 "
fill = "white" stroke = "black"/>
</g>
<g>
<polygon points = "750.125, 253.758 795.560, 274.774 819.920, 254.488 823.764, 211.405 772.489, 199.920 745.835, 237.689 "
fill = "white" stroke = "black"/>
</g>
<g>
<polygon points = "341.359, 491.480 341.401, 491.163 316.011, 453.470 268.499, 453.172 254.089, 492.248 260.383, 499.503 313.464, 524.519 335.261, 508.692 "
fill = "white" stroke = "black"/>
</g>
<g>
<polygon points = "739.231, 133.740 759.626, 119.205 741.825, 61.006 674.852, 93.140 674.805, 93.287 "
fill = "white" stroke = "black"/>
</g>
<g>
<polygon points = "995.607, 94.971 1000.000, 93.837 1000.000, 91.114 949.632, 0.000 851.814, 0.000 "
fill = "white" stroke = "black"/>
</g>
<g>
<polygon points = "175.019, 420.730 111.137, 407.962 107.008, 477.084 140.085, 522.730 142.920, 523.674 162.579, 500.906 "
fill = "white" stroke = "black"/>
</g>
<g>
<polygon points = "217.200, 548.710 251.688, 552.649 260.383, 499.503 254.089, 492.248 245.737, 493.197 210.312, 539.643 "
fill = "white" stroke = "black"/>
</g>
<g>
<polygon points = "146.563, 62.303 168.095, 154.811 233.618, 223.487 254.638, 205.844 262.236, 152.432 222.987, 54.958 167.229, 14.224 "
fill = "white" stroke = "black"/>
</g>
<g>
<polygon points = "882.621, 243.340 873.614, 215.651 830.199, 200.997 823.764, 211.405 819.920, 254.488 "
fill = "white" stroke = "black"/>
</g>
<g>
<polygon points = "1000.000, 91.114 1000.000, 0.000 949.632, 0.000 "
fill = "white" stroke = "black"/>
</g>
<g>
<polygon points = "448.612, 344.358 431.922, 331.833 381.945, 326.379 353.424, 373.723 353.970, 374.559 387.933, 394.204 448.022, 362.578 452.170, 348.887 "
fill = "white" stroke = "black"/>
</g>
<g>
<polygon points = "335.614, 760.821 301.846, 694.479 299.089, 693.663 276.624, 750.284 "
fill = "white" stroke = "black"/>
</g>
<g>
<polygon points = "0.000, 104.418 0.000, 221.883 0.969, 221.715 50.804, 118.146 "
fill = "white" stroke = "black"/>
</g>
<g>
<polygon points = "146.425, 643.889 155.712, 633.109 148.641, 610.924 87.306, 596.240 21.466, 625.137 60.917, 667.754 "
fill = "white" stroke = "black"/>
</g>
<g>
<polygon points = "93.336, 297.765 82.246, 289.177 0.000, 310.360 0.000, 372.192 73.957, 376.227 "
fill = "white" stroke = "black"/>
</g>
<g>
<polygon points = "943.452, 928.039 837.596, 1000.000 961.174, 1000.000 "
fill = "white" stroke = "black"/>
</g>
<g>
<polygon points = "254.936, 662.117 236.804, 664.867 221.292, 716.148 226.743, 730.006 271.044, 752.273 276.624, 750.284 299.089, 693.663 "
fill = "white" stroke = "black"/>
</g>
<g>
<polygon points = "676.935, 395.882 664.926, 395.905 657.242, 439.646 731.854, 469.324 732.893, 468.159 721.235, 415.178 "
fill = "white" stroke = "black"/>
</g>
<g>
<polygon points = "726.919, 144.473 714.191, 144.995 721.510, 190.251 741.301, 163.304 "
fill = "white" stroke = "black"/>
</g>
<g>
<polygon points = "149.728, 535.348 210.312, 539.643 245.737, 493.197 223.497, 486.077 162.579, 500.906 142.920, 523.674 "
fill = "white" stroke = "black"/>
</g>
<g>
<polygon points = "478.334, 220.135 428.334, 215.502 439.838, 277.212 483.817, 263.434 "
fill = "white" stroke = "black"/>
</g>
<g>
<polygon points = "973.778, 524.268 927.170, 510.252 882.782, 571.234 893.597, 581.565 961.032, 614.881 972.808, 615.543 "
fill = "white" stroke = "black"/>
</g>
<g>
<polygon points = "159.125, 292.724 186.317, 264.671 133.387, 228.704 77.701, 205.564 63.649, 216.959 82.246, 289.177 93.336, 297.765 "
fill = "white" stroke = "black"/>
</g>
<g>
<polygon points = "387.933, 394.204 353.970, 374.559 369.368, 410.758 375.366, 416.138 411.947, 427.237 "
fill = "white" stroke = "black"/>
</g>
<g>
<polygon points = "630.085, 273.403 625.719, 270.296 589.341, 250.752 585.726, 286.791 "
fill = "white" stroke = "black"/>
</g>
<g>
<polygon points = "364.558, 438.547 375.366, 416.138 369.368, 410.758 343.390, 432.125 347.433, 434.840 "
fill = "white" stroke = "black"/>
</g>
<g>
<polygon points = "226.520, 953.443 274.797, 912.573 273.810, 824.583 267.202, 818.880 221.688, 804.595 194.517, 836.829 201.585, 935.474 "
fill = "white" stroke = "black"/>
</g>
<g>
<polygon points = "874.540, 569.258 843.109, 533.040 719.434, 549.474 713.576, 558.395 717.263, 567.480 826.210, 609.848 "
fill = "white" stroke = "black"/>
</g>
<g>
<polygon points = "957.135, 442.456 955.590, 445.904 988.133, 513.516 1000.000, 511.919 1000.000, 426.763 "
fill = "white" stroke = "black"/>
</g>
<g>
<polygon points = "353.798, 193.948 309.240, 207.342 346.137, 293.603 359.839, 303.533 360.760, 303.754 389.586, 215.160 "
fill = "white" stroke = "black"/>
</g>
<g>
<polygon points = "682.297, 742.664 676.760, 732.054 667.763, 731.887 640.563, 753.668 640.722, 839.714 651.096, 851.359 688.210, 773.834 "
fill = "white" stroke = "black"/>
</g>
<g>
<polygon points = "76.970, 539.725 68.221, 482.231 39.992, 476.565 0.000, 508.715 0.000, 547.778 "
fill = "white" stroke = "black"/>
</g>
<g>
<polygon points = "448.612, 344.358 452.170, 348.887 496.245, 358.464 519.617, 303.357 494.634, 283.059 "
fill = "white" stroke = "black"/>
</g>
<g>
<polygon points = "934.998, 781.835 919.709, 798.069 934.879, 912.008 945.541, 922.488 1000.000, 902.050 1000.000, 877.891 "
fill = "white" stroke = "black"/>
</g>
<g>
<polygon points = "934.879, 912.008 919.709, 798.069 912.574, 801.479 883.484, 871.005 912.179, 902.352 "
fill = "white" stroke = "black"/>
</g>
<g>
<polygon points = "359.839, 303.533 346.137, 293.603 302.547, 283.133 288.004, 338.637 "
fill = "white" stroke = "black"/>
</g>
<g>
<polygon points = "87.306, 596.240 87.843, 541.328 76.970, 539.725 0.000, 547.778 0.000, 615.435 21.466, 625.137 "
fill = "white" stroke = "black"/>
</g>
<g>
<polygon points = "666.040, 82.179 674.852, 93.140 741.825, 61.006 782.735, 0.000 648.934, 0.000 "
fill = "white" stroke = "black"/>
</g>
<g>
<polygon points = "877.399, 869.887 883.484, 871.005 912.574, 801.479 906.589, 802.566 858.429, 844.812 "
fill = "white" stroke = "black"/>
</g>
<g>
<polygon points = "544.242, 141.270 533.236, 165.246 567.070, 218.206 587.732, 221.906 623.130, 206.828 601.287, 161.115 "
fill = "white" stroke = "black"/>
</g>
<g>
<polygon points = "213.592, 789.363 160.972, 778.078 151.651, 783.153 139.691, 821.897 194.517, 836.829 221.688, 804.595 "
fill = "white" stroke = "black"/>
</g>
<g>
<polygon points = "488.021, 217.134 517.614, 171.848 443.866, 145.848 424.741, 212.563 428.334, 215.502 478.334, 220.135 "
fill = "white" stroke = "black"/>
</g>
<g>
<polygon points = "441.270, 820.460 483.407, 870.292 565.079, 868.475 565.548, 867.458 566.314, 858.457 559.187, 794.378 454.381, 739.603 "
fill = "white" stroke = "black"/>
</g>
<g>
<polygon points = "439.838, 277.212 428.334, 215.502 424.741, 212.563 389.586, 215.160 360.760, 303.754 381.945, 326.379 431.922, 331.833 "
fill = "white" stroke = "black"/>
</g>
<g>
<polygon points = "640.816, 703.632 452.975, 701.205 452.025, 735.154 454.381, 739.603 559.187, 794.378 640.563, 753.668 667.763, 731.887 "
fill = "white" stroke = "black"/>
</g>
<g>
<polygon points = "697.812, 321.824 760.027, 359.655 773.347, 361.058 808.353, 306.632 795.560, 274.774 750.125, 253.758 689.999, 313.648 "
fill = "white" stroke = "black"/>
</g>
<g>
<polygon points = "483.817, 263.434 439.838, 277.212 431.922, 331.833 448.612, 344.358 494.634, 283.059 497.117, 274.739 "
fill = "white" stroke = "black"/>
</g>
<g>
<polygon points = "412.719, 866.987 413.959, 855.361 357.118, 848.527 339.381, 871.293 327.844, 888.723 400.655, 896.454 "
fill = "white" stroke = "black"/>
</g>
<g>
<polygon points = "81.678, 190.695 75.822, 121.592 50.804, 118.146 0.969, 221.715 63.649, 216.959 77.701, 205.564 "
fill = "white" stroke = "black"/>
</g>
<g>
<polygon points = "622.552, 557.187 713.576, 558.395 719.434, 549.474 731.854, 469.324 657.242, 439.646 643.224, 444.548 "
fill = "white" stroke = "black"/>
</g>
<g>
<polygon points = "87.843, 541.328 87.306, 596.240 148.641, 610.924 154.152, 576.337 149.728, 535.348 142.920, 523.674 140.085, 522.730 "
fill = "white" stroke = "black"/>
</g>
<g>
<polygon points = "856.228, 79.464 901.569, 123.868 995.607, 94.971 851.814, 0.000 823.592, 0.000 "
fill = "white" stroke = "black"/>
</g>
<g>
<polygon points = "359.251, 475.044 347.433, 434.840 343.390, 432.125 328.838, 429.921 316.011, 453.470 341.401, 491.163 "
fill = "white" stroke = "black"/>
</g>
<g>
<polygon points = "337.143, 509.909 409.528, 588.941 423.148, 527.060 "
fill = "white" stroke = "black"/>
</g>
<g>
<polygon points = "362.971, 95.643 262.236, 152.432 254.638, 205.844 309.240, 207.342 353.798, 193.948 "
fill = "white" stroke = "black"/>
</g>
<g>
<polygon points = "260.383, 499.503 251.688, 552.649 260.147, 569.845 273.310, 574.305 311.614, 552.473 313.464, 524.519 "
fill = "white" stroke = "black"/>
</g>
<g>
<polygon points = "167.229, 14.224 222.987, 54.958 373.774, 68.240 371.211, 0.000 164.294, 0.000 "
fill = "white" stroke = "black"/>
</g>
<g>
<polygon points = "575.070, 303.779 585.726, 286.791 589.341, 250.752 588.681, 231.776 587.732, 221.906 567.070, 218.206 532.857, 250.115 531.820, 259.069 544.425, 282.683 "
fill = "white" stroke = "black"/>
</g>
<g>
<polygon points = "735.111, 780.908 764.501, 839.612 782.797, 844.739 785.703, 793.432 "
fill = "white" stroke = "black"/>
</g>
<g>
<polygon points = "362.971, 95.643 353.798, 193.948 389.586, 215.160 424.741, 212.563 443.866, 145.848 429.314, 88.478 375.528, 71.147 "
fill = "white" stroke = "black"/>
</g>
<g>
<polygon points = "925.815, 479.741 869.688, 464.296 840.572, 472.988 843.109, 533.040 874.540, 569.258 882.782, 571.234 927.170, 510.252 "
fill = "white" stroke = "black"/>
</g>
<g>
<polygon points = "945.541, 922.488 943.452, 928.039 961.174, 1000.000 1000.000, 1000.000 1000.000, 902.050 "
fill = "white" stroke = "black"/>
</g>
<g>
<polygon points = "104.661, 398.018 73.957, 376.227 0.000, 372.192 0.000, 376.522 43.154, 457.258 108.253, 405.043 "
fill = "white" stroke = "black"/>
</g>
<g>
<polygon points = "186.648, 416.683 175.019, 420.730 162.579, 500.906 223.497, 486.077 "
fill = "white" stroke = "black"/>
</g>
<g>
<polygon points = "667.466, 114.477 629.769, 121.109 601.287, 161.115 623.130, 206.828 645.632, 209.444 663.591, 197.701 671.024, 126.013 "
fill = "white" stroke = "black"/>
</g>
<g>
<polygon points = "247.081, 388.221 259.110, 373.312 259.512, 360.006 215.661, 254.937 186.317, 264.671 159.125, 292.724 156.923, 328.087 210.272, 397.531 "
fill = "white" stroke = "black"/>
</g>
<g>
<polygon points = "75.822, 121.592 81.678, 190.695 148.042, 168.554 168.095, 154.811 146.563, 62.303 "
fill = "white" stroke = "black"/>
</g>
<g>
<polygon points = "699.608, 933.318 793.410, 965.099 804.719, 925.308 795.175, 879.588 725.436, 879.098 683.791, 892.882 685.112, 905.431 "
fill = "white" stroke = "black"/>
</g>
<g>
<polygon points = "972.808, 615.543 961.032, 614.881 889.423, 704.046 1000.000, 680.919 1000.000, 626.343 "
fill = "white" stroke = "black"/>
</g>
<g>
<polygon points = "337.112, 761.990 374.156, 762.131 452.025, 735.154 452.975, 701.205 448.916, 668.533 431.227, 654.637 301.846, 694.479 335.614, 760.821 "
fill = "white" stroke = "black"/>
</g>
<g>
<polygon points = "758.362, 840.238 702.740, 834.144 682.328, 889.191 683.791, 892.882 725.436, 879.098 "
fill = "white" stroke = "black"/>
</g>
<g>
<polygon points = "714.191, 144.995 671.024, 126.013 663.591, 197.701 715.071, 211.353 721.510, 190.251 "
fill = "white" stroke = "black"/>
</g>
<g>
<polygon points = "802.396, 437.150 805.972, 419.343 773.347, 361.058 760.027, 359.655 722.659, 399.719 721.235, 415.178 732.893, 468.159 "
fill = "white" stroke = "black"/>
</g>
<g>
<polygon points = "93.118, 737.842 96.487, 745.365 151.651, 783.153 160.972, 778.078 172.100, 727.880 140.618, 710.420 "
fill = "white" stroke = "black"/>
</g>
<g>
<polygon points = "88.057, 963.380 14.239, 948.570 0.000, 955.399 0.000, 1000.000 95.363, 1000.000 "
fill = "white" stroke = "black"/>
</g>
<g>
<polygon points = "885.020, 147.733 828.072, 175.688 830.199, 200.997 873.614, 215.651 "
fill = "white" stroke = "black"/>
</g>
<g>
<polygon points = "84.905, 827.646 112.039, 843.880 139.691, 821.897 151.651, 783.153 96.487, 745.365 "
fill = "white" stroke = "black"/>
</g>
<g>
<polygon points = "39.992, 476.565 43.154, 457.258 0.000, 376.522 0.000, 508.715 "
fill = "white" stroke = "black"/>
</g>
<g>
<polygon points = "483.407, 870.292 441.270, 820.460 413.959, 855.361 412.719, 866.987 474.494, 920.493 "
fill = "white" stroke = "black"/>
</g>
<g>
<polygon points = "663.591, 197.701 645.632, 209.444 653.082, 272.171 679.961, 314.027 689.999, 313.648 750.125, 253.758 745.835, 237.689 715.071, 211.353 "
fill = "white" stroke = "black"/>
</g>
<g>
<polygon points = "108.253, 405.043 43.154, 457.258 39.992, 476.565 68.221, 482.231 107.008, 477.084 111.137, 407.962 "
fill = "white" stroke = "black"/>
</g>
<g>
<polygon points = "154.152, 576.337 217.172, 576.263 217.200, 548.710 210.312, 539.643 149.728, 535.348 "
fill = "white" stroke = "black"/>
</g>
<g>
<polygon points = "288.004, 338.637 302.547, 283.133 226.767, 240.455 215.661, 254.937 259.512, 360.006 "
fill = "white" stroke = "black"/>
</g>
<g>
<polygon points = "260.147, 569.845 251.688, 552.649 217.200, 548.710 217.172, 576.263 228.466, 589.508 "
fill = "white" stroke = "black"/>
</g>
<g>
<polygon points = "504.532, 474.833 513.469, 477.330 574.931, 425.976 563.386, 389.937 547.244, 366.927 513.204, 367.059 500.134, 463.519 "
fill = "white" stroke = "black"/>
</g>
<g>
<polygon points = "186.648, 416.683 210.272, 397.531 156.923, 328.087 104.661, 398.018 108.253, 405.043 111.137, 407.962 175.019, 420.730 "
fill = "white" stroke = "black"/>
</g>
<g>
<polygon points = "988.133, 513.516 955.590, 445.904 925.815, 479.741 927.170, 510.252 973.778, 524.268 "
fill = "white" stroke = "black"/>
</g>
<g>
<polygon points = "956.683, 242.637 902.486, 255.443 873.726, 334.161 887.088, 359.726 895.394, 363.685 933.589, 349.798 987.237, 250.635 "
fill = "white" stroke = "black"/>
</g>
<g>
<polygon points = "293.094, 816.100 311.273, 822.393 349.672, 832.285 374.156, 762.131 337.112, 761.990 "
fill = "white" stroke = "black"/>
</g>
<g>
<polygon points = "937.944, 774.103 934.998, 781.835 1000.000, 877.891 1000.000, 748.007 "
fill = "white" stroke = "black"/>
</g>
<g>
<polygon points = "988.133, 513.516 973.778, 524.268 972.808, 615.543 1000.000, 626.343 1000.000, 511.919 "
fill = "white" stroke = "black"/>
</g>
<g>
<polygon points = "685.112, 905.431 683.791, 892.882 682.328, 889.191 672.072, 883.539 652.845, 881.505 601.465, 916.261 624.074, 926.031 "
fill = "white" stroke = "black"/>
</g>
<g>
<polygon points = "476.765, 935.179 474.494, 920.493 412.719, 866.987 400.655, 896.454 401.151, 908.613 "
fill = "white" stroke = "black"/>
</g>
<g>
<polygon points = "0.000, 104.418 50.804, 118.146 75.822, 121.592 146.563, 62.303 167.229, 14.224 164.294, 0.000 0.000, 0.000 "
fill = "white" stroke = "black"/>
</g>
<g>
<polygon points = "222.987, 54.958 262.236, 152.432 362.971, 95.643 375.528, 71.147 373.774, 68.240 "
fill = "white" stroke = "black"/>
</g>
<g>
<polygon points = "816.131, 756.779 696.565, 716.795 676.760, 732.054 682.297, 742.664 735.111, 780.908 785.703, 793.432 816.146, 757.906 "
fill = "white" stroke = "black"/>
</g>
<g>
<polygon points = "228.466, 589.508 217.172, 576.263 154.152, 576.337 148.641, 610.924 155.712, 633.109 218.764, 649.968 "
fill = "white" stroke = "black"/>
</g>
<g>
<polygon points = "580.487, 327.100 547.244, 366.927 563.386, 389.937 623.396, 383.045 649.307, 356.847 650.923, 338.570 "
fill = "white" stroke = "black"/>
</g>
<g>
<polygon points = "431.227, 654.637 448.916, 668.533 514.799, 618.929 467.107, 499.750 433.492, 506.258 431.648, 508.945 423.148, 527.060 409.528, 588.941 409.796, 626.171 "
fill = "white" stroke = "black"/>
</g>
<g>
<polygon points = "643.224, 444.548 657.242, 439.646 664.926, 395.905 649.307, 356.847 623.396, 383.045 615.903, 435.496 "
fill = "white" stroke = "black"/>
</g>
<g>
<polygon points = "828.072, 175.688 885.020, 147.733 900.715, 127.824 901.569, 123.868 856.228, 79.464 786.551, 146.933 787.041, 158.530 "
fill = "white" stroke = "black"/>
</g>
<g>
<polygon points = "706.669, 381.856 722.659, 399.719 760.027, 359.655 697.812, 321.824 "
fill = "white" stroke = "black"/>
</g>
<g>
<polygon points = "381.486, 462.142 407.680, 458.789 416.025, 429.254 411.947, 427.237 375.366, 416.138 364.558, 438.547 "
fill = "white" stroke = "black"/>
</g>
<g>
<polygon points = "758.362, 840.238 764.501, 839.612 735.111, 780.908 682.297, 742.664 688.210, 773.834 702.740, 834.144 "
fill = "white" stroke = "black"/>
</g>
<g>
<polygon points = "907.773, 396.244 869.688, 464.296 925.815, 479.741 955.590, 445.904 957.135, 442.456 "
fill = "white" stroke = "black"/>
</g>
<g>
<polygon points = "172.100, 727.880 160.972, 778.078 213.592, 789.363 226.743, 730.006 221.292, 716.148 "
fill = "white" stroke = "black"/>
</g>
<g>
<polygon points = "722.659, 399.719 706.669, 381.856 676.935, 395.882 721.235, 415.178 "
fill = "white" stroke = "black"/>
</g>
<g>
<polygon points = "328.838, 429.921 343.390, 432.125 369.368, 410.758 353.970, 374.559 353.424, 373.723 319.235, 388.127 "
fill = "white" stroke = "black"/>
</g>
<g>
<polygon points = "68.221, 482.231 76.970, 539.725 87.843, 541.328 140.085, 522.730 107.008, 477.084 "
fill = "white" stroke = "black"/>
</g>
<g>
<polygon points = "588.681, 231.776 589.341, 250.752 625.719, 270.296 "
fill = "white" stroke = "black"/>
</g>
<g>
<polygon points = "664.926, 395.905 676.935, 395.882 706.669, 381.856 697.812, 321.824 689.999, 313.648 679.961, 314.027 650.923, 338.570 649.307, 356.847 "
fill = "white" stroke = "black"/>
</g>
<g>
<polygon points = "148.042, 168.554 133.387, 228.704 186.317, 264.671 215.661, 254.937 226.767, 240.455 233.618, 223.487 168.095, 154.811 "
fill = "white" stroke = "black"/>
</g>
<g>
<polygon points = "907.773, 396.244 895.394, 363.685 887.088, 359.726 805.972, 419.343 802.396, 437.150 840.572, 472.988 869.688, 464.296 "
fill = "white" stroke = "black"/>
</g>
<g>
<polygon points = "625.918, 67.511 584.782, 70.293 580.509, 102.525 629.769, 121.109 667.466, 114.477 674.805, 93.287 674.852, 93.140 666.040, 82.179 "
fill = "white" stroke = "black"/>
</g>
<g>
<polygon points = "82.246, 289.177 63.649, 216.959 0.969, 221.715 0.000, 221.883 0.000, 310.360 "
fill = "white" stroke = "black"/>
</g>
<g>
<polygon points = "987.237, 250.635 933.589, 349.798 1000.000, 373.120 1000.000, 249.233 "
fill = "white" stroke = "black"/>
</g>
<g>
<polygon points = "576.399, 591.108 514.799, 618.929 448.916, 668.533 452.975, 701.205 640.816, 703.632 "
fill = "white" stroke = "black"/>
</g>
<g>
<polygon points = "140.618, 710.420 172.100, 727.880 221.292, 716.148 236.804, 664.867 218.764, 649.968 155.712, 633.109 146.425, 643.889 "
fill = "white" stroke = "black"/>
</g>
<g>
<polygon points = "859.036, 878.978 816.183, 919.791 912.179, 902.352 883.484, 871.005 877.399, 869.887 "
fill = "white" stroke = "black"/>
</g>
<g>
<polygon points = "787.041, 158.530 786.551, 146.933 759.626, 119.205 739.231, 133.740 726.919, 144.473 741.301, 163.304 786.137, 159.688 "
fill = "white" stroke = "black"/>
</g>
<g>
<polygon points = "339.381, 871.293 357.118, 848.527 349.672, 832.285 311.273, 822.393 "
fill = "white" stroke = "black"/>
</g>
<g>
<polygon points = "88.057, 963.380 145.765, 918.880 120.392, 885.542 38.833, 904.047 14.239, 948.570 "
fill = "white" stroke = "black"/>
</g>
<g>
<polygon points = "805.972, 419.343 887.088, 359.726 873.726, 334.161 808.353, 306.632 773.347, 361.058 "
fill = "white" stroke = "black"/>
</g>
<g>
<polygon points = "416.025, 429.254 407.680, 458.789 433.492, 506.258 467.107, 499.750 504.532, 474.833 500.134, 463.519 435.522, 412.343 "
fill = "white" stroke = "black"/>
</g>
<g>
<polygon points = "281.900, 633.277 357.027, 610.449 311.614, 552.473 273.310, 574.305 "
fill = "white" stroke = "black"/>
</g>
<g>
<polygon points = "467.107, 499.750 514.799, 618.929 576.399, 591.108 591.158, 567.041 581.119, 548.947 513.469, 477.330 504.532, 474.833 "
fill = "white" stroke = "black"/>
</g>
<g>
<polygon points = "339.381, 871.293 311.273, 822.393 293.094, 816.100 273.810, 824.583 274.797, 912.573 294.130, 911.518 327.844, 888.723 "
fill = "white" stroke = "black"/>
</g>
<g>
<polygon points = "226.767, 240.455 302.547, 283.133 346.137, 293.603 309.240, 207.342 254.638, 205.844 233.618, 223.487 "
fill = "white" stroke = "black"/>
</g>
<g>
<polygon points = "995.607, 94.971 901.569, 123.868 900.715, 127.824 956.683, 242.637 987.237, 250.635 1000.000, 249.233 1000.000, 93.837 "
fill = "white" stroke = "black"/>
</g>
<g>
<polygon points = "667.466, 114.477 671.024, 126.013 714.191, 144.995 726.919, 144.473 739.231, 133.740 674.805, 93.287 "
fill = "white" stroke = "black"/>
</g>
<g>
<polygon points = "889.423, 704.046 881.954, 711.188 937.944, 774.103 1000.000, 748.007 1000.000, 680.919 "
fill = "white" stroke = "black"/>
</g>
<g>
<polygon points = "120.392, 885.542 112.039, 843.880 84.905, 827.646 28.621, 827.513 38.833, 904.047 "
fill = "white" stroke = "black"/>
</g>
<g>
<polygon points = "532.857, 250.115 567.070, 218.206 533.236, 165.246 517.614, 171.848 488.021, 217.134 "
fill = "white" stroke = "black"/>
</g>
<g>
<polygon points = "933.589, 349.798 895.394, 363.685 907.773, 396.244 957.135, 442.456 1000.000, 426.763 1000.000, 373.120 "
fill = "white" stroke = "black"/>
</g>
<g>
<polygon points = "945.541, 922.488 934.879, 912.008 912.179, 902.352 816.183, 919.791 804.719, 925.308 793.410, 965.099 807.219, 1000.000 837.596, 1000.000 943.452, 928.039 "
fill = "white" stroke = "black"/>
</g>
<g>
<polygon points = "360.760, 303.754 359.839, 303.533 288.004, 338.637 259.512, 360.006 259.110, 373.312 319.235, 388.127 353.424, 373.723 381.945, 326.379 "
fill = "white" stroke = "black"/>
</g>
<g>
<polygon points = "563.856, 902.988 565.079, 868.475 483.407, 870.292 474.494, 920.493 476.765, 935.179 494.050, 969.737 546.624, 940.018 "
fill = "white" stroke = "black"/>
</g>
<g>
<polygon points = "293.094, 816.100 337.112, 761.990 335.614, 760.821 276.624, 750.284 271.044, 752.273 267.202, 818.880 273.810, 824.583 "
fill = "white" stroke = "black"/>
</g>
<g>
<polygon points = "483.545, 68.648 544.152, 132.384 580.509, 102.525 584.782, 70.293 548.101, 0.000 528.159, 0.000 "
fill = "white" stroke = "black"/>
</g>
<g>
<polygon points = "156.923, 328.087 159.125, 292.724 93.336, 297.765 73.957, 376.227 104.661, 398.018 "
fill = "white" stroke = "black"/>
</g>
<g>
<polygon points = "341.359, 491.480 335.261, 508.692 337.143, 509.909 423.148, 527.060 431.648, 508.945 "
fill = "white" stroke = "black"/>
</g>
<g>
<polygon points = "719.434, 549.474 843.109, 533.040 840.572, 472.988 802.396, 437.150 732.893, 468.159 731.854, 469.324 "
fill = "white" stroke = "black"/>
</g>
<g>
<polygon points = "407.680, 458.789 381.486, 462.142 359.251, 475.044 341.401, 491.163 341.359, 491.480 431.648, 508.945 433.492, 506.258 "
fill = "white" stroke = "black"/>
</g>
<g>
<polygon points = "580.487, 327.100 575.070, 303.779 544.425, 282.683 519.617, 303.357 496.245, 358.464 513.204, 367.059 547.244, 366.927 "
fill = "white" stroke = "black"/>
</g>
<g>
<polygon points = "387.933, 394.204 411.947, 427.237 416.025, 429.254 435.522, 412.343 448.022, 362.578 "
fill = "white" stroke = "black"/>
</g>
<g>
<polygon points = "793.410, 965.099 699.608, 933.318 651.035, 1000.000 807.219, 1000.000 "
fill = "white" stroke = "black"/>
</g>
<g>
<polygon points = "652.845, 881.505 565.548, 867.458 565.079, 868.475 563.856, 902.988 601.465, 916.261 "
fill = "white" stroke = "black"/>
</g>
<g>
<polygon points = "443.866, 145.848 517.614, 171.848 533.236, 165.246 544.242, 141.270 544.152, 132.384 483.545, 68.648 429.314, 88.478 "
fill = "white" stroke = "black"/>
</g>
<g>
<polygon points = "532.857, 250.115 488.021, 217.134 478.334, 220.135 483.817, 263.434 497.117, 274.739 531.820, 259.069 "
fill = "white" stroke = "black"/>
</g>
<g>
<polygon points = "826.210, 609.848 717.263, 567.480 727.554, 669.517 810.959, 667.127 "
fill = "white" stroke = "black"/>
</g>
<g>
<polygon points = "381.486, 462.142 364.558, 438.547 347.433, 434.840 359.251, 475.044 "
fill = "white" stroke = "black"/>
</g>
<g>
<polygon points = "625.918, 67.511 666.040, 82.179 648.934, 0.000 611.607, 0.000 "
fill = "white" stroke = "black"/>
</g>
<g>
<polygon points = "349.672, 832.285 357.118, 848.527 413.959, 855.361 441.270, 820.460 454.381, 739.603 452.025, 735.154 374.156, 762.131 "
fill = "white" stroke = "black"/>
</g>
<g>
<polygon points = "758.362, 840.238 725.436, 879.098 795.175, 879.588 795.175, 857.876 782.797, 844.739 764.501, 839.612 "
fill = "white" stroke = "black"/>
</g>
<g>
<polygon points = "584.782, 70.293 625.918, 67.511 611.607, 0.000 548.101, 0.000 "
fill = "white" stroke = "black"/>
</g>
<g>
<polygon points = "366.055, 950.675 294.130, 911.518 274.797, 912.573 226.520, 953.443 229.531, 1000.000 346.625, 1000.000 "
fill = "white" stroke = "black"/>
</g>
<g>
<polygon points = "699.608, 933.318 685.112, 905.431 624.074, 926.031 621.454, 999.169 622.055, 1000.000 651.035, 1000.000 "
fill = "white" stroke = "black"/>
</g>
<g>
<polygon points = "795.175, 879.588 804.719, 925.308 816.183, 919.791 859.036, 878.978 837.065, 842.677 825.039, 839.317 795.175, 857.876 "
fill = "white" stroke = "black"/>
</g>
<g>
<polygon points = "629.769, 121.109 580.509, 102.525 544.152, 132.384 544.242, 141.270 601.287, 161.115 "
fill = "white" stroke = "black"/>
</g>
<g>
<polygon points = "873.726, 334.161 902.486, 255.443 882.621, 243.340 819.920, 254.488 795.560, 274.774 808.353, 306.632 "
fill = "white" stroke = "black"/>
</g>
<g>
<polygon points = "226.520, 953.443 201.585, 935.474 145.765, 918.880 88.057, 963.380 95.363, 1000.000 229.531, 1000.000 "
fill = "white" stroke = "black"/>
</g>
<g>
<polygon points = "679.961, 314.027 653.082, 272.171 630.085, 273.403 585.726, 286.791 575.070, 303.779 580.487, 327.100 650.923, 338.570 "
fill = "white" stroke = "black"/>
</g>
<g>
<polygon points = "28.621, 827.513 84.905, 827.646 96.487, 745.365 93.118, 737.842 65.288, 724.583 0.000, 763.083 0.000, 809.704 "
fill = "white" stroke = "black"/>
</g>
<g>
<polygon points = "559.187, 794.378 566.314, 858.457 640.722, 839.714 640.563, 753.668 "
fill = "white" stroke = "black"/>
</g>
<g>
<polygon points = "281.900, 633.277 254.936, 662.117 299.089, 693.663 301.846, 694.479 431.227, 654.637 409.796, 626.171 357.027, 610.449 "
fill = "white" stroke = "black"/>
</g>
<g>
<polygon points = "696.565, 716.795 727.554, 669.517 717.263, 567.480 713.576, 558.395 622.552, 557.187 591.158, 567.041 576.399, 591.108 640.816, 703.632 667.763, 731.887 676.760, 732.054 "
fill = "white" stroke = "black"/>
</g>
<g>
<polygon points = "830.199, 200.997 828.072, 175.688 787.041, 158.530 786.137, 159.688 772.489, 199.920 823.764, 211.405 "
fill = "white" stroke = "black"/>
</g>
<g>
<polygon points = "591.158, 567.041 622.552, 557.187 643.224, 444.548 615.903, 435.496 595.554, 436.561 581.119, 548.947 "
fill = "white" stroke = "black"/>
</g>
<g>
<polygon points = "900.715, 127.824 885.020, 147.733 873.614, 215.651 882.621, 243.340 902.486, 255.443 956.683, 242.637 "
fill = "white" stroke = "black"/>
</g>
<g>
<polygon points = "566.314, 858.457 565.548, 867.458 652.845, 881.505 672.072, 883.539 651.096, 851.359 640.722, 839.714 "
fill = "white" stroke = "black"/>
</g>
<g>
<polygon points = "228.466, 589.508 218.764, 649.968 236.804, 664.867 254.936, 662.117 281.900, 633.277 273.310, 574.305 260.147, 569.845 "
fill = "white" stroke = "black"/>
</g>
<g>
<polygon points = "859.036, 878.978 877.399, 869.887 858.429, 844.812 837.065, 842.677 "
fill = "white" stroke = "black"/>
</g>
<g>
<polygon points = "476.765, 935.179 401.151, 908.613 385.667, 947.482 445.889, 1000.000 479.582, 1000.000 494.050, 969.737 "
fill = "white" stroke = "black"/>
</g>
<g>
<polygon points = "328.838, 429.921 319.235, 388.127 259.110, 373.312 247.081, 388.221 268.499, 453.172 316.011, 453.470 "
fill = "white" stroke = "black"/>
</g>
<g>
<polygon points = "247.081, 388.221 210.272, 397.531 186.648, 416.683 223.497, 486.077 245.737, 493.197 254.089, 492.248 268.499, 453.172 "
fill = "white" stroke = "black"/>
</g>
<g>
<polygon points = "93.118, 737.842 140.618, 710.420 146.425, 643.889 60.917, 667.754 65.288, 724.583 "
fill = "white" stroke = "black"/>
</g>
<g>
<polygon points = "148.042, 168.554 81.678, 190.695 77.701, 205.564 133.387, 228.704 "
fill = "white" stroke = "black"/>
</g>
<g>
<polygon points = "854.008, 705.510 810.959, 667.127 727.554, 669.517 696.565, 716.795 816.131, 756.779 "
fill = "white" stroke = "black"/>
</g>
<g>
<polygon points = "741.825, 61.006 759.626, 119.205 786.551, 146.933 856.228, 79.464 823.592, 0.000 782.735, 0.000 "
fill = "white" stroke = "black"/>
</g>
<g>
<polygon points = "653.082, 272.171 645.632, 209.444 623.130, 206.828 587.732, 221.906 588.681, 231.776 625.719, 270.296 630.085, 273.403 "
fill = "white" stroke = "black"/>
</g>
<g>
<polygon points = "882.782, 571.234 874.540, 569.258 826.210, 609.848 810.959, 667.127 854.008, 705.510 859.515, 705.223 893.597, 581.565 "
fill = "white" stroke = "black"/>
</g>
<g>
<polygon points = "912.574, 801.479 919.709, 798.069 934.998, 781.835 937.944, 774.103 881.954, 711.188 859.515, 705.223 854.008, 705.510 816.131, 756.779 816.146, 757.906 841.223, 796.991 906.589, 802.566 "
fill = "white" stroke = "black"/>
</g>
<g>
<polygon points = "271.044, 752.273 226.743, 730.006 213.592, 789.363 221.688, 804.595 267.202, 818.880 "
fill = "white" stroke = "black"/>
</g>
<g>
<circle cx = "563.585" cy = "998.749" r = "3" />
<circle cx = "808.741" cy = "806.696" r = "3" />
<circle cx = "479.873" cy = "414.991" r = "3" />
<circle cx = "895.962" cy = "649.709" r = "3" />
<circle cx = "746.605" cy = "177.160" r = "3" />
<circle cx = "858.943" cy = "825.892" r = "3" />
<circle cx = "513.535" cy = "289.499" r = "3" />
<circle cx = "14.985" cy = "696.005" r = "3" />
<circle cx = "364.452" cy = "908.597" r = "3" />
<circle cx = "165.899" cy = "852.687" r = "3" />
<circle cx = "445.692" cy = "11.475" r = "3" />
<circle cx = "4.669" cy = "880.917" r = "3" />
<circle cx = "377.880" cy = "991.089" r = "3" />
<circle cx = "571.184" cy = "468.337" r = "3" />
<circle cx = "607.166" cy = "398.236" r = "3" />
<circle cx = "663.045" cy = "833.766" r = "3" />
<circle cx = "352.123" cy = "549.211" r = "3" />
<circle cx = "607.685" cy = "942.961" r = "3" />
<circle cx = "802.606" cy = "216.681" r = "3" />
<circle cx = "301.950" cy = "480.117" r = "3" />
<circle cx = "726.676" cy = "124.027" r = "3" />
<circle cx = "925.718" cy = "44.099" r = "3" />
<circle cx = "142.338" cy = "460.646" r = "3" />
<circle cx = "235.328" cy = "537.919" r = "3" />
<circle cx = "209.601" cy = "137.761" r = "3" />
<circle cx = "843.654" cy = "220.344" r = "3" />
<circle cx = "999.695" cy = "3.204" r = "3" />
<circle cx = "392.438" cy = "388.501" r = "3" />
<circle cx = "297.281" cy = "733.787" r = "3" />
<circle cx = "23.743" cy = "159.856" r = "3" />
<circle cx = "92.624" cy = "624.134" r = "3" />
<circle cx = "56.215" cy = "322.794" r = "3" />
<circle cx = "918.790" cy = "991.211" r = "3" />
<circle cx = "272.897" cy = "724.113" r = "3" />
<circle cx = "691.183" cy = "412.091" r = "3" />
<circle cx = "726.493" cy = "162.389" r = "3" />
<circle cx = "205.359" cy = "515.061" r = "3" />
<circle cx = "468.459" cy = "256.264" r = "3" />
<circle cx = "949.156" cy = "542.039" r = "3" />
<circle cx = "108.280" cy = "255.562" r = "3" />
<circle cx = "385.235" cy = "400.952" r = "3" />
<circle cx = "608.966" cy = "264.992" r = "3" />
<circle cx = "361.339" cy = "427.595" r = "3" />
<circle cx = "225.105" cy = "848.445" r = "3" />
<circle cx = "802.881" cy = "574.847" r = "3" />
<circle cx = "989.990" cy = "482.894" r = "3" />
<circle cx = "345.561" cy = "248.451" r = "3" />
<circle cx = "657.308" cy = "831.019" r = "3" />
<circle cx = "63.540" cy = "508.103" r = "3" />
<circle cx = "504.807" cy = "300.241" r = "3" />
<circle cx = "949.583" cy = "852.504" r = "3" />
<circle cx = "905.118" cy = "858.425" r = "3" />
<circle cx = "303.049" cy = "307.108" r = "3" />
<circle cx = "70.376" cy = "573.443" r = "3" />
<circle cx = "683.187" cy = "33.387" r = "3" />
<circle cx = "877.255" cy = "846.767" r = "3" />
<circle cx = "582.049" cy = "178.320" r = "3" />
<circle cx = "177.892" cy = "808.649" r = "3" />
<circle cx = "475.265" cy = "182.806" r = "3" />
<circle cx = "503.922" cy = "844.447" r = "3" />
<circle cx = "405.591" cy = "267.983" r = "3" />
<circle cx = "568.743" cy = "720.420" r = "3" />
<circle cx = "755.852" cy = "317.759" r = "3" />
<circle cx = "475.295" cy = "278.085" r = "3" />
<circle cx = "367.809" cy = "876.980" r = "3" />
<circle cx = "35.096" cy = "165.319" r = "3" />
<circle cx = "662.984" cy = "482.986" r = "3" />
<circle cx = "104.678" cy = "573.778" r = "3" />
<circle cx = "921.384" cy = "50.661" r = "3" />
<circle cx = "345.988" cy = "450.453" r = "3" />
<circle cx = "374.981" cy = "528.275" r = "3" />
<circle cx = "316.874" cy = "153.020" r = "3" />
<circle cx = "271.889" cy = "543.901" r = "3" />
<circle cx = "297.800" cy = "17.029" r = "3" />
<circle cx = "567.278" cy = "260.811" r = "3" />
<circle cx = "761.315" cy = "804.010" r = "3" />
<circle cx = "397.656" cy = "160.558" r = "3" />
<circle cx = "890.164" cy = "499.100" r = "3" />
<circle cx = "994.629" cy = "972.533" r = "3" />
<circle cx = "50.508" cy = "427.412" r = "3" />
<circle cx = "194.067" cy = "468.673" r = "3" />
<circle cx = "626.759" cy = "156.957" r = "3" />
<circle cx = "197.851" cy = "342.387" r = "3" />
<circle cx = "123.325" cy = "157.842" r = "3" />
<circle cx = "743.126" cy = "890.072" r = "3" />
<circle cx = "941.069" cy = "685.934" r = "3" />
<circle cx = "336.314" cy = "713.919" r = "3" />
<circle cx = "733.085" cy = "859.737" r = "3" />
<circle cx = "707.999" cy = "165.380" r = "3" />
<circle cx = "747.215" cy = "399.762" r = "3" />
<circle cx = "144.475" cy = "747.276" r = "3" />
<circle cx = "61.007" cy = "998.383" r = "3" />
<circle cx = "852.626" cy = "193.762" r = "3" />
<circle cx = "115.604" cy = "789.422" r = "3" />
<circle cx = "14.252" cy = "446.791" r = "3" />
<circle cx = "454.512" cy = "886.227" r = "3" />
<circle cx = "686.148" cy = "247.780" r = "3" />
<circle cx = "73.885" cy = "456.557" r = "3" />
<circle cx = "201.941" cy = "563.280" r = "3" />
<circle cx = "290.353" cy = "303.781" r = "3" />
<circle cx = "232.429" cy = "563.311" r = "3" />
<circle cx = "532.579" cy = "422.132" r = "3" />
<circle cx = "160.192" cy = "371.319" r = "3" />
<circle cx = "963.042" cy = "495.865" r = "3" />
<circle cx = "924.802" cy = "304.239" r = "3" />
<circle cx = "335.948" cy = "810.053" r = "3" />
<circle cx = "995.178" cy = "821.650" r = "3" />
<circle cx = "998.016" cy = "542.558" r = "3" />
<circle cx = "625.172" cy = "902.493" r = "3" />
<circle cx = "437.727" cy = "905.606" r = "3" />
<circle cx = "48.433" cy = "68.484" r = "3" />
<circle cx = "290.017" cy = "105.380" r = "3" />
<circle cx = "769.066" cy = "772.698" r = "3" />
<circle cx = "201.971" cy = "589.282" r = "3" />
<circle cx = "604.144" cy = "371.929" r = "3" />
<circle cx = "466.353" cy = "548.387" r = "3" />
<circle cx = "634.724" cy = "402.173" r = "3" />
<circle cx = "828.791" cy = "145.207" r = "3" />
<circle cx = "720.908" cy = "375.225" r = "3" />
<circle cx = "375.134" cy = "434.248" r = "3" />
<circle cx = "737.907" cy = "815.729" r = "3" />
<circle cx = "905.087" cy = "444.868" r = "3" />
<circle cx = "188.940" cy = "757.134" r = "3" />
<circle cx = "698.508" cy = "395.276" r = "3" />
<circle cx = "351.299" cy = "415.387" r = "3" />
<circle cx = "80.386" cy = "505.539" r = "3" />
<circle cx = "612.049" cy = "259.255" r = "3" />
<circle cx = "691.122" cy = "379.620" r = "3" />
<circle cx = "149.113" cy = "195.471" r = "3" />
<circle cx = "867.733" cy = "423.963" r = "3" />
<circle cx = "614.704" cy = "88.443" r = "3" />
<circle cx = "43.214" cy = "272.317" r = "3" />
<circle cx = "976.531" cy = "332.224" r = "3" />
<circle cx = "569.201" cy = "684.988" r = "3" />
<circle cx = "173.925" cy = "694.174" r = "3" />
<circle cx = "869.045" cy = "891.446" r = "3" />
<circle cx = "744.316" cy = "148.778" r = "3" />
<circle cx = "326.914" cy = "845.119" r = "3" />
<circle cx = "76.601" cy = "920.652" r = "3" />
<circle cx = "820.002" cy = "359.020" r = "3" />
<circle cx = "448.256" cy = "454.909" r = "3" />
<circle cx = "298.746" cy = "591.021" r = "3" />
<circle cx = "501.205" cy = "534.440" r = "3" />
<circle cx = "323.038" cy = "847.346" r = "3" />
<circle cx = "313.883" cy = "262.001" r = "3" />
<circle cx = "959.075" cy = "173.315" r = "3" />
<circle cx = "725.028" cy = "126.652" r = "3" />
<circle cx = "943.999" cy = "699.942" r = "3" />
<circle cx = "65.737" cy = "872.768" r = "3" />
<circle cx = "524.583" cy = "215.033" r = "3" />
<circle cx = "956.114" cy = "390.362" r = "3" />
<circle cx = "875.637" cy = "927.732" r = "3" />
<circle cx = "322.123" cy = "346.141" r = "3" />
<circle cx = "505.051" cy = "895.199" r = "3" />
<circle cx = "290.292" cy = "772.912" r = "3" />
<circle cx = "551.164" cy = "80.020" r = "3" />
<circle cx = "114.536" cy = "337.199" r = "3" />
<circle cx = "379.131" cy = "507.462" r = "3" />
<circle cx = "793.359" cy = "503.189" r = "3" />
<circle cx = "382.366" cy = "490.738" r = "3" />
<circle cx = "532.151" cy = "311.838" r = "3" />
<circle cx = "395.184" cy = "393.719" r = "3" />
<circle cx = "707.877" cy = "994.110" r = "3" />
<circle cx = "623.066" cy = "899.380" r = "3" />
<circle cx = "491.501" cy = "136.753" r = "3" />
<circle cx = "496.902" cy = "252.663" r = "3" />
<circle cx = "785.363" cy = "619.892" r = "3" />
<circle cx = "357.097" cy = "447.188" r = "3" />
<circle cx = "630.848" cy = "44.282" r = "3" />
<circle cx = "374.248" cy = "823.420" r = "3" />
<circle cx = "743.278" cy = "868.374" r = "3" />
<circle cx = "611.988" cy = "48.280" r = "3" />
<circle cx = "329.844" cy = "972.167" r = "3" />
<circle cx = "639.210" cy = "944.090" r = "3" />
<circle cx = "847.072" cy = "868.374" r = "3" />
<circle cx = "596.881" cy = "135.685" r = "3" />
<circle cx = "853.969" cy = "278.359" r = "3" />
<circle cx = "126.469" cy = "985.321" r = "3" />
<circle cx = "617.145" cy = "292.093" r = "3" />
<circle cx = "65.950" cy = "782.434" r = "3" />
<circle cx = "624.104" cy = "831.080" r = "3" />
<circle cx = "319.407" cy = "659.017" r = "3" />
<circle cx = "661.000" cy = "632.435" r = "3" />
<circle cx = "806.879" cy = "197.607" r = "3" />
<circle cx = "611.103" cy = "473.464" r = "3" />
<circle cx = "900.601" cy = "201.819" r = "3" />
<circle cx = "630.177" cy = "855.190" r = "3" />
<circle cx = "253.700" cy = "597.583" r = "3" />
<circle cx = "855.190" cy = "863.460" r = "3" />
<circle cx = "427.808" cy = "933.836" r = "3" />
<circle cx = "302.286" cy = "426.649" r = "3" />
<circle cx = "225.562" cy = "451.949" r = "3" />
<circle cx = "110.630" cy = "688.650" r = "3" />
<circle cx = "134.709" cy = "191.961" r = "3" />
<circle cx = "788.110" cy = "715.751" r = "3" />
<circle cx = "789.636" cy = "104.770" r = "3" />
<circle cx = "615.223" cy = "256.203" r = "3" />
<circle cx = "856.655" cy = "638.874" r = "3" />
<circle cx = "863.582" cy = "771.508" r = "3" />
<circle cx = "249.550" cy = "770.562" r = "3" />
</g>
</svg>
