<svg xmlns = "http://www.w3.org/2000/svg" width = "1000" height = "1000">
<g>
<polygon points = "559.996, 741.671 443.045, 1000.000 762.370, 1000.000 "
fill = "white" stroke = "black"/>
</g>
<g>
<polygon points = "864.867, 735.156 643.038, 611.908 548.449, 691.324 559.996, 741.671 762.370, 1000.000 763.598, 1000.000 "
fill = "white" stroke = "black"/>
</g>
<g>
<polygon points = "52.550, 233.105 273.270, 598.248 332.691, 640.873 548.449, 691.324 643.038, 611.908 740.616, 438.931 715.701, 410.988 "
fill = "white" stroke = "black"/>
</g>
<g>
<polygon points = "740.616, 438.931 643.038, 611.908 864.867, 735.156 1000.000, 763.549 1000.000, 356.948 "
fill = "white" stroke = "black"/>
</g>
<g>
<polygon points = "715.701, 410.988 740.616, 438.931 1000.000, 356.948 1000.000, 0.000 517.606, 0.000 "
fill = "white" stroke = "black"/>
</g>
<g>
<polygon points = "864.867, 735.156 763.598, 1000.000 1000.000, 1000.000 1000.000, 763.549 "
fill = "white" stroke = "black"/>
</g>
<g>
<polygon points = "0.000, 168.657 52.550, 233.105 715.701, 410.988 517.606, 0.000 0.000, 0.000 "
fill = "white" stroke = "black"/>
</g>
<g>
<polygon points = "273.270, 598.248 52.550, 233.105 0.000, 168.657 0.000, 861.458 "
fill = "white" stroke = "black"/>
</g>
<g>
<polygon points = "332.691, 640.873 231.566, 1000.000 443.045, 1000.000 559.996, 741.671 548.449, 691.324 "
fill = "white" stroke = "black"/>
</g>
<g>
<polygon points = "332.691, 640.873 273.270, 598.248 0.000, 861.458 0.000, 1000.000 231.566, 1000.000 "
fill = "white" stroke = "black"/>
</g>
</svg>
