<svg xmlns = "http://www.w3.org/2000/svg" width = "1000" height = "1000">
<g>
<polygon points = "527.331, 924.766 471.390, 978.993 470.523, 1000.000 622.505, 1000.000 "
fill = "white" stroke = "black"/>
</g>
<g>
<polygon points = "782.513, 849.762 788.456, 858.239 811.015, 875.992 864.824, 735.268 864.571, 734.991 791.317, 694.291 "
fill = "white" stroke = "black"/>
</g>
<g>
<polygon points = "452.170, 348.887 430.909, 419.062 424.770, 460.449 425.799, 470.125 479.728, 520.059 543.977, 410.087 538.387, 367.621 "
fill = "white" stroke = "black"/>
</g>
<g>
<polygon points = "961.032, 614.881 880.112, 574.903 879.461, 574.928 786.701, 690.263 791.317, 694.291 864.571, 734.991 "
fill = "white" stroke = "black"/>
</g>
<g>
<polygon points = "809.346, 123.324 755.958, 143.348 721.510, 190.251 715.071, 211.353 745.835, 237.689 804.441, 154.644 "
fill = "white" stroke = "black"/>
</g>
<g>
<polygon points = "814.897, 882.998 915.325, 794.903 918.657, 790.173 924.497, 770.284 864.824, 735.268 811.015, 875.992 "
fill = "white" stroke = "black"/>
</g>
<g>
<polygon points = "518.953, 234.964 502.212, 257.671 494.634, 283.059 564.780, 340.053 571.815, 333.996 "
fill = "white" stroke = "black"/>
</g>
<g>
<polygon points = "22.182, 789.150 75.915, 731.274 89.038, 698.131 21.466, 625.137 0.000, 615.435 0.000, 787.913 "
fill = "white" stroke = "black"/>
</g>
<g>
<polygon points = "409.477, 897.391 292.016, 884.919 255.891, 968.608 420.510, 941.810 "
fill = "white" stroke = "black"/>
</g>
<g>
<polygon points = "205.628, 991.896 194.517, 836.829 139.691, 821.897 85.030, 865.352 92.988, 910.801 "
fill = "white" stroke = "black"/>
</g>
<g>
<polygon points = "373.863, 70.611 457.691, 97.622 524.687, 86.058 553.983, 62.115 561.660, 52.560 566.509, 0.000 371.211, 0.000 "
fill = "white" stroke = "black"/>
</g>
<g>
<polygon points = "92.988, 910.801 85.030, 865.352 22.182, 789.150 0.000, 787.913 0.000, 955.399 "
fill = "white" stroke = "black"/>
</g>
<g>
<polygon points = "420.510, 941.810 255.891, 968.608 226.580, 1000.000 470.523, 1000.000 471.390, 978.993 "
fill = "white" stroke = "black"/>
</g>
<g>
<polygon points = "502.231, 593.722 598.097, 594.651 621.221, 449.735 543.977, 410.087 479.728, 520.059 "
fill = "white" stroke = "black"/>
</g>
<g>
<polygon points = "644.335, 434.512 661.185, 332.332 581.267, 331.252 571.815, 333.996 564.780, 340.053 538.387, 367.621 543.977, 410.087 621.221, 449.735 "
fill = "white" stroke = "black"/>
</g>
<g>
<polygon points = "680.563, 893.950 710.479, 813.272 694.536, 760.618 633.769, 887.554 671.581, 906.725 "
fill = "white" stroke = "black"/>
</g>
<g>
<polygon points = "306.619, 627.956 454.626, 642.162 456.315, 640.026 335.722, 508.357 313.464, 524.519 "
fill = "white" stroke = "black"/>
</g>
<g>
<polygon points = "671.581, 906.725 633.769, 887.554 583.006, 865.051 527.982, 923.007 527.331, 924.766 622.505, 1000.000 708.005, 1000.000 "
fill = "white" stroke = "black"/>
</g>
<g>
<polygon points = "750.125, 253.758 817.217, 284.792 824.854, 199.193 804.441, 154.644 745.835, 237.689 "
fill = "white" stroke = "black"/>
</g>
<g>
<polygon points = "344.260, 495.409 275.576, 393.442 273.647, 393.429 273.466, 393.441 255.126, 407.303 247.386, 480.262 250.030, 487.569 260.383, 499.503 313.464, 524.519 335.722, 508.357 "
fill = "white" stroke = "black"/>
</g>
<g>
<polygon points = "826.151, 92.972 803.039, 31.636 662.988, 98.832 671.244, 123.885 713.893, 143.148 755.958, 143.348 809.346, 123.324 "
fill = "white" stroke = "black"/>
</g>
<g>
<polygon points = "1000.000, 97.872 1000.000, 91.114 949.632, 0.000 851.814, 0.000 "
fill = "white" stroke = "black"/>
</g>
<g>
<polygon points = "177.463, 404.976 120.706, 378.333 120.052, 378.741 111.465, 402.466 106.244, 489.863 122.517, 516.882 142.920, 523.674 162.579, 500.906 "
fill = "white" stroke = "black"/>
</g>
<g>
<polygon points = "246.106, 586.766 260.383, 499.503 250.030, 487.569 210.312, 539.643 "
fill = "white" stroke = "black"/>
</g>
<g>
<polygon points = "182.565, 216.981 209.731, 240.346 252.703, 219.445 271.101, 90.107 147.758, 0.000 132.062, 0.000 "
fill = "white" stroke = "black"/>
</g>
<g>
<polygon points = "824.854, 199.193 817.217, 284.792 895.127, 355.013 917.399, 351.297 1000.000, 305.258 1000.000, 258.312 "
fill = "white" stroke = "black"/>
</g>
<g>
<polygon points = "1000.000, 91.114 1000.000, 0.000 949.632, 0.000 "
fill = "white" stroke = "black"/>
</g>
<g>
<polygon points = "448.612, 344.358 431.922, 331.833 368.580, 324.920 333.934, 362.969 430.909, 419.062 452.170, 348.887 "
fill = "white" stroke = "black"/>
</g>
<g>
<polygon points = "353.134, 795.243 300.115, 691.077 260.578, 790.729 305.230, 818.837 "
fill = "white" stroke = "black"/>
</g>
<g>
<polygon points = "0.000, 223.728 71.827, 74.456 70.321, 0.000 0.000, 0.000 "
fill = "white" stroke = "black"/>
</g>
<g>
<polygon points = "183.314, 658.435 158.131, 613.195 87.306, 596.240 21.466, 625.137 89.038, 698.131 "
fill = "white" stroke = "black"/>
</g>
<g>
<polygon points = "128.124, 324.705 27.180, 246.534 0.000, 250.179 0.000, 372.192 120.052, 378.741 120.706, 378.333 "
fill = "white" stroke = "black"/>
</g>
<g>
<polygon points = "942.377, 923.676 936.252, 922.316 858.673, 930.304 832.592, 937.804 796.782, 1000.000 961.174, 1000.000 "
fill = "white" stroke = "black"/>
</g>
<g>
<polygon points = "195.433, 662.220 211.380, 750.631 240.033, 782.832 260.578, 790.729 300.115, 691.077 290.925, 633.903 259.215, 634.080 "
fill = "white" stroke = "black"/>
</g>
<g>
<polygon points = "733.274, 469.889 707.807, 354.155 673.171, 330.410 664.127, 330.688 661.185, 332.332 644.335, 434.512 "
fill = "white" stroke = "black"/>
</g>
<g>
<polygon points = "713.893, 143.148 721.510, 190.251 755.958, 143.348 "
fill = "white" stroke = "black"/>
</g>
<g>
<polygon points = "149.728, 535.348 210.312, 539.643 250.030, 487.569 247.386, 480.262 162.579, 500.906 142.920, 523.674 "
fill = "white" stroke = "black"/>
</g>
<g>
<polygon points = "519.460, 223.945 428.334, 215.502 439.838, 277.212 502.212, 257.671 518.953, 234.964 "
fill = "white" stroke = "black"/>
</g>
<g>
<polygon points = "940.279, 492.242 880.112, 574.903 961.032, 614.881 1000.000, 617.072 1000.000, 533.474 "
fill = "white" stroke = "black"/>
</g>
<g>
<polygon points = "209.669, 240.580 209.731, 240.346 182.565, 216.981 82.601, 201.590 27.180, 246.534 128.124, 324.705 "
fill = "white" stroke = "black"/>
</g>
<g>
<polygon points = "333.934, 362.969 324.904, 370.878 424.770, 460.449 430.909, 419.062 "
fill = "white" stroke = "black"/>
</g>
<g>
<polygon points = "638.176, 214.320 625.730, 212.270 592.154, 222.697 581.267, 331.252 661.185, 332.332 664.127, 330.688 "
fill = "white" stroke = "black"/>
</g>
<g>
<polygon points = "324.904, 370.878 282.638, 391.326 404.311, 473.037 425.799, 470.125 424.770, 460.449 "
fill = "white" stroke = "black"/>
</g>
<g>
<polygon points = "255.891, 968.608 292.016, 884.919 305.230, 818.837 260.578, 790.729 240.033, 782.832 194.517, 836.829 205.628, 991.896 213.033, 1000.000 226.580, 1000.000 "
fill = "white" stroke = "black"/>
</g>
<g>
<polygon points = "797.283, 480.235 756.353, 493.248 670.816, 623.515 702.862, 675.056 786.701, 690.263 879.461, 574.928 "
fill = "white" stroke = "black"/>
</g>
<g>
<polygon points = "917.399, 351.297 940.279, 492.242 1000.000, 533.474 1000.000, 305.258 "
fill = "white" stroke = "black"/>
</g>
<g>
<polygon points = "353.798, 193.948 262.971, 221.251 307.198, 265.381 360.642, 304.115 389.586, 215.160 "
fill = "white" stroke = "black"/>
</g>
<g>
<polygon points = "683.751, 719.085 577.665, 804.035 583.006, 865.051 633.769, 887.554 694.536, 760.618 "
fill = "white" stroke = "black"/>
</g>
<g>
<polygon points = "87.870, 538.585 122.517, 516.882 106.244, 489.863 39.992, 476.565 0.000, 508.715 0.000, 547.778 "
fill = "white" stroke = "black"/>
</g>
<g>
<polygon points = "448.612, 344.358 452.170, 348.887 538.387, 367.621 564.780, 340.053 494.634, 283.059 "
fill = "white" stroke = "black"/>
</g>
<g>
<polygon points = "924.497, 770.284 918.657, 790.173 936.252, 922.316 942.377, 923.676 1000.000, 902.050 1000.000, 766.424 "
fill = "white" stroke = "black"/>
</g>
<g>
<polygon points = "918.657, 790.173 915.325, 794.903 858.673, 930.304 936.252, 922.316 "
fill = "white" stroke = "black"/>
</g>
<g>
<polygon points = "360.642, 304.115 307.198, 265.381 273.647, 393.429 275.576, 393.442 282.638, 391.326 324.904, 370.878 333.934, 362.969 368.580, 324.920 "
fill = "white" stroke = "black"/>
</g>
<g>
<polygon points = "87.306, 596.240 87.870, 538.585 0.000, 547.778 0.000, 615.435 21.466, 625.137 "
fill = "white" stroke = "black"/>
</g>
<g>
<polygon points = "561.660, 52.560 662.988, 98.832 803.039, 31.636 805.333, 0.000 566.509, 0.000 "
fill = "white" stroke = "black"/>
</g>
<g>
<polygon points = "915.325, 794.903 814.897, 882.998 832.592, 937.804 858.673, 930.304 "
fill = "white" stroke = "black"/>
</g>
<g>
<polygon points = "592.154, 222.697 625.730, 212.270 553.983, 62.115 524.687, 86.058 529.959, 211.561 "
fill = "white" stroke = "black"/>
</g>
<g>
<polygon points = "151.651, 783.153 139.691, 821.897 194.517, 836.829 240.033, 782.832 211.380, 750.631 "
fill = "white" stroke = "black"/>
</g>
<g>
<polygon points = "529.959, 211.561 524.687, 86.058 457.691, 97.622 424.741, 212.563 428.334, 215.502 519.460, 223.945 "
fill = "white" stroke = "black"/>
</g>
<g>
<polygon points = "527.982, 923.007 583.006, 865.051 577.665, 804.035 451.937, 738.325 417.257, 782.857 420.324, 795.689 "
fill = "white" stroke = "black"/>
</g>
<g>
<polygon points = "439.838, 277.212 428.334, 215.502 424.741, 212.563 389.586, 215.160 360.642, 304.115 368.580, 324.920 431.922, 331.833 "
fill = "white" stroke = "black"/>
</g>
<g>
<polygon points = "702.862, 675.056 670.816, 623.515 598.097, 594.651 502.231, 593.722 456.315, 640.026 454.626, 642.162 451.937, 738.325 577.665, 804.035 683.751, 719.085 "
fill = "white" stroke = "black"/>
</g>
<g>
<polygon points = "872.821, 371.535 895.127, 355.013 817.217, 284.792 750.125, 253.758 673.171, 330.410 707.807, 354.155 "
fill = "white" stroke = "black"/>
</g>
<g>
<polygon points = "439.838, 277.212 431.922, 331.833 448.612, 344.358 494.634, 283.059 502.212, 257.671 "
fill = "white" stroke = "black"/>
</g>
<g>
<polygon points = "420.324, 795.689 417.257, 782.857 353.134, 795.243 305.230, 818.837 292.016, 884.919 409.477, 897.391 "
fill = "white" stroke = "black"/>
</g>
<g>
<polygon points = "71.827, 74.456 0.000, 223.728 0.000, 250.179 27.180, 246.534 82.601, 201.590 "
fill = "white" stroke = "black"/>
</g>
<g>
<polygon points = "670.816, 623.515 756.353, 493.248 733.274, 469.889 644.335, 434.512 621.221, 449.735 598.097, 594.651 "
fill = "white" stroke = "black"/>
</g>
<g>
<polygon points = "87.870, 538.585 87.306, 596.240 158.131, 613.195 149.728, 535.348 142.920, 523.674 122.517, 516.882 "
fill = "white" stroke = "black"/>
</g>
<g>
<polygon points = "803.039, 31.636 826.151, 92.972 1000.000, 176.504 1000.000, 97.872 851.814, 0.000 805.333, 0.000 "
fill = "white" stroke = "black"/>
</g>
<g>
<polygon points = "404.311, 473.037 282.638, 391.326 275.576, 393.442 344.260, 495.409 "
fill = "white" stroke = "black"/>
</g>
<g>
<polygon points = "404.311, 473.037 344.260, 495.409 335.722, 508.357 456.315, 640.026 502.231, 593.722 479.728, 520.059 425.799, 470.125 "
fill = "white" stroke = "black"/>
</g>
<g>
<polygon points = "364.712, 76.977 271.101, 90.107 252.703, 219.445 262.971, 221.251 353.798, 193.948 "
fill = "white" stroke = "black"/>
</g>
<g>
<polygon points = "260.383, 499.503 246.106, 586.766 259.215, 634.080 290.925, 633.903 306.619, 627.956 313.464, 524.519 "
fill = "white" stroke = "black"/>
</g>
<g>
<polygon points = "271.101, 90.107 364.712, 76.977 373.863, 70.611 371.211, 0.000 147.758, 0.000 "
fill = "white" stroke = "black"/>
</g>
<g>
<polygon points = "592.154, 222.697 529.959, 211.561 519.460, 223.945 518.953, 234.964 571.815, 333.996 581.267, 331.252 "
fill = "white" stroke = "black"/>
</g>
<g>
<polygon points = "786.701, 690.263 702.862, 675.056 683.751, 719.085 694.536, 760.618 710.479, 813.272 782.513, 849.762 791.317, 694.291 "
fill = "white" stroke = "black"/>
</g>
<g>
<polygon points = "364.712, 76.977 353.798, 193.948 389.586, 215.160 424.741, 212.563 457.691, 97.622 373.863, 70.611 "
fill = "white" stroke = "black"/>
</g>
<g>
<polygon points = "917.399, 351.297 895.127, 355.013 872.821, 371.535 797.283, 480.235 879.461, 574.928 880.112, 574.903 940.279, 492.242 "
fill = "white" stroke = "black"/>
</g>
<g>
<polygon points = "942.377, 923.676 961.174, 1000.000 1000.000, 1000.000 1000.000, 902.050 "
fill = "white" stroke = "black"/>
</g>
<g>
<polygon points = "0.000, 372.192 0.000, 376.522 43.154, 457.258 111.465, 402.466 120.052, 378.741 "
fill = "white" stroke = "black"/>
</g>
<g>
<polygon points = "177.463, 404.976 162.579, 500.906 247.386, 480.262 255.126, 407.303 "
fill = "white" stroke = "black"/>
</g>
<g>
<polygon points = "561.660, 52.560 553.983, 62.115 625.730, 212.270 638.176, 214.320 663.591, 197.701 671.244, 123.885 662.988, 98.832 "
fill = "white" stroke = "black"/>
</g>
<g>
<polygon points = "209.669, 240.580 128.124, 324.705 120.706, 378.333 177.463, 404.976 255.126, 407.303 273.466, 393.441 "
fill = "white" stroke = "black"/>
</g>
<g>
<polygon points = "71.827, 74.456 82.601, 201.590 182.565, 216.981 132.062, 0.000 70.321, 0.000 "
fill = "white" stroke = "black"/>
</g>
<g>
<polygon points = "832.592, 937.804 814.897, 882.998 811.015, 875.992 788.456, 858.239 680.563, 893.950 671.581, 906.725 708.005, 1000.000 796.782, 1000.000 "
fill = "white" stroke = "black"/>
</g>
<g>
<polygon points = "961.032, 614.881 864.571, 734.991 864.824, 735.268 924.497, 770.284 1000.000, 766.424 1000.000, 617.072 "
fill = "white" stroke = "black"/>
</g>
<g>
<polygon points = "417.257, 782.857 451.937, 738.325 454.626, 642.162 306.619, 627.956 290.925, 633.903 300.115, 691.077 353.134, 795.243 "
fill = "white" stroke = "black"/>
</g>
<g>
<polygon points = "710.479, 813.272 680.563, 893.950 788.456, 858.239 782.513, 849.762 "
fill = "white" stroke = "black"/>
</g>
<g>
<polygon points = "713.893, 143.148 671.244, 123.885 663.591, 197.701 715.071, 211.353 721.510, 190.251 "
fill = "white" stroke = "black"/>
</g>
<g>
<polygon points = "756.353, 493.248 797.283, 480.235 872.821, 371.535 707.807, 354.155 733.274, 469.889 "
fill = "white" stroke = "black"/>
</g>
<g>
<polygon points = "151.651, 783.153 211.380, 750.631 195.433, 662.220 183.314, 658.435 89.038, 698.131 75.915, 731.274 "
fill = "white" stroke = "black"/>
</g>
<g>
<polygon points = "205.628, 991.896 92.988, 910.801 0.000, 955.399 0.000, 1000.000 213.033, 1000.000 "
fill = "white" stroke = "black"/>
</g>
<g>
<polygon points = "826.151, 92.972 809.346, 123.324 804.441, 154.644 824.854, 199.193 1000.000, 258.312 1000.000, 176.504 "
fill = "white" stroke = "black"/>
</g>
<g>
<polygon points = "85.030, 865.352 139.691, 821.897 151.651, 783.153 75.915, 731.274 22.182, 789.150 "
fill = "white" stroke = "black"/>
</g>
<g>
<polygon points = "39.992, 476.565 43.154, 457.258 0.000, 376.522 0.000, 508.715 "
fill = "white" stroke = "black"/>
</g>
<g>
<polygon points = "527.982, 923.007 420.324, 795.689 409.477, 897.391 420.510, 941.810 471.390, 978.993 527.331, 924.766 "
fill = "white" stroke = "black"/>
</g>
<g>
<polygon points = "663.591, 197.701 638.176, 214.320 664.127, 330.688 673.171, 330.410 750.125, 253.758 745.835, 237.689 715.071, 211.353 "
fill = "white" stroke = "black"/>
</g>
<g>
<polygon points = "43.154, 457.258 39.992, 476.565 106.244, 489.863 111.465, 402.466 "
fill = "white" stroke = "black"/>
</g>
<g>
<polygon points = "158.131, 613.195 183.314, 658.435 195.433, 662.220 259.215, 634.080 246.106, 586.766 210.312, 539.643 149.728, 535.348 "
fill = "white" stroke = "black"/>
</g>
<g>
<polygon points = "307.198, 265.381 262.971, 221.251 252.703, 219.445 209.731, 240.346 209.669, 240.580 273.466, 393.441 273.647, 393.429 "
fill = "white" stroke = "black"/>
</g>
</svg>
